<svg width="39" height="39" viewBox="0 0 39 39" fill="none" xmlns="http://www.w3.org/2000/svg">
<path fill-rule="evenodd" clip-rule="evenodd" d="M19.5007 0.708496C9.12253 0.708496 0.708984 9.12204 0.708984 19.5002C0.708984 29.8783 9.12253 38.2918 19.5007 38.2918C29.8788 38.2918 38.2923 29.8783 38.2923 19.5002C38.2923 9.12204 29.8788 0.708496 19.5007 0.708496ZM21.209 26.3335C21.209 26.7866 21.029 27.2211 20.7086 27.5415C20.3882 27.8618 19.9537 28.0418 19.5007 28.0418C19.0476 28.0418 18.6131 27.8618 18.2927 27.5415C17.9723 27.2211 17.7923 26.7866 17.7923 26.3335V21.2085H12.6673C12.2142 21.2085 11.7797 21.0285 11.4593 20.7081C11.139 20.3878 10.959 19.9532 10.959 19.5002C10.959 19.0471 11.139 18.6126 11.4593 18.2922C11.7797 17.9718 12.2142 17.7918 12.6673 17.7918H17.7923V12.6668C17.7923 12.2138 17.9723 11.7792 18.2927 11.4589C18.6131 11.1385 19.0476 10.9585 19.5007 10.9585C19.9537 10.9585 20.3882 11.1385 20.7086 11.4589C21.029 11.7792 21.209 12.2138 21.209 12.6668V17.7918H26.334C26.7871 17.7918 27.2216 17.9718 27.542 18.2922C27.8623 18.6126 28.0423 19.0471 28.0423 19.5002C28.0423 19.9532 27.8623 20.3878 27.542 20.7081C27.2216 21.0285 26.7871 21.2085 26.334 21.2085H21.209V26.3335Z" fill="#DCE6F2"/>
</svg>
