<svg width="28" height="28" viewBox="0 0 28 28" xmlns="http://www.w3.org/2000/svg">
<path d="M11.5258 20.1168C11.2951 20.1167 11.0696 20.0483 10.8778 19.9201C10.6859 19.7919 10.5365 19.6097 10.4482 19.3966C10.3599 19.1834 10.3368 18.9489 10.3818 18.7226C10.4268 18.4963 10.5378 18.2885 10.701 18.1253L14.8251 14L10.701 9.87463C10.4884 9.65459 10.3708 9.35989 10.3735 9.05399C10.3762 8.74809 10.4989 8.45548 10.7152 8.23917C10.9315 8.02286 11.2241 7.90016 11.53 7.89751C11.8359 7.89485 12.1306 8.01244 12.3506 8.22496L17.2996 13.1751C17.5183 13.3939 17.6412 13.6906 17.6412 14C17.6412 14.3093 17.5183 14.606 17.2996 14.8248L12.3506 19.775C12.2424 19.8835 12.1139 19.9695 11.9723 20.0282C11.8308 20.0868 11.679 20.117 11.5258 20.1168Z"/>
</svg>
