<svg width="28" height="28" viewBox="0 0 28 28" xmlns="http://www.w3.org/2000/svg">
<path d="M16.4748 20.1168C16.3216 20.117 16.1698 20.0868 16.0283 20.0282C15.8867 19.9695 15.7582 19.8835 15.65 19.775L10.701 14.8248C10.4822 14.606 10.3594 14.3093 10.3594 14C10.3594 13.6906 10.4822 13.3939 10.701 13.1751L15.65 8.22496C15.87 8.01244 16.1647 7.89485 16.4706 7.89751C16.7765 7.90016 17.0691 8.02286 17.2854 8.23917C17.5017 8.45548 17.6244 8.74809 17.6271 9.05399C17.6297 9.35989 17.5121 9.65459 17.2996 9.87463L13.1755 14L17.2996 18.1253C17.4627 18.2885 17.5738 18.4963 17.6188 18.7226C17.6638 18.9489 17.6407 19.1834 17.5524 19.3966C17.4641 19.6097 17.3146 19.7919 17.1228 19.9201C16.931 20.0483 16.7055 20.1167 16.4748 20.1168Z"/>
</svg>
