<svg width="19" height="12" viewBox="0 0 19 12" fill="none" xmlns="http://www.w3.org/2000/svg">
<path fill-rule="evenodd" clip-rule="evenodd" d="M0.629395 5.99981C0.629395 5.83405 0.695243 5.67508 0.812453 5.55787C0.929663 5.44066 1.08863 5.37481 1.25439 5.37481H15.9956L12.0619 1.44231C11.9445 1.32495 11.8786 1.16578 11.8786 0.999813C11.8786 0.833843 11.9445 0.674671 12.0619 0.557313C12.1793 0.439954 12.3384 0.374023 12.5044 0.374023C12.6704 0.374023 12.8295 0.439954 12.9469 0.557313L17.9469 5.55731C18.0051 5.61537 18.0513 5.68434 18.0828 5.76027C18.1143 5.8362 18.1305 5.9176 18.1305 5.99981C18.1305 6.08202 18.1143 6.16342 18.0828 6.23935C18.0513 6.31528 18.0051 6.38426 17.9469 6.44231L12.9469 11.4423C12.8295 11.5597 12.6704 11.6256 12.5044 11.6256C12.3384 11.6256 12.1793 11.5597 12.0619 11.4423C11.9445 11.325 11.8786 11.1658 11.8786 10.9998C11.8786 10.8338 11.9445 10.6747 12.0619 10.5573L15.9956 6.62481H1.25439C1.08863 6.62481 0.929663 6.55896 0.812453 6.44175C0.695243 6.32454 0.629395 6.16557 0.629395 5.99981V5.99981Z" fill="#2E3831"/>
</svg>
