<svg width="12" height="12" viewBox="0 0 12 12" fill="none" xmlns="http://www.w3.org/2000/svg">
<path d="M0.167913 4.3479C0.154496 4.56721 0.288663 4.77158 0.50683 4.86335L4.88416 6.69998L6.892 10.7035C6.98766 10.8935 7.19533 11.0146 7.42225 11.0146L7.4555 11.0135C7.57257 11.0075 7.68495 10.9694 7.77798 10.9041C7.87101 10.8388 7.94036 10.7494 7.977 10.6475L11.2407 1.55935C11.309 1.36833 11.2542 1.15756 11.099 1.01509C10.9438 0.87262 10.714 0.824063 10.504 0.885426L0.56808 3.87087C0.456691 3.90438 0.358929 3.96782 0.287546 4.05292C0.216163 4.13801 0.174472 4.24081 0.167913 4.3479ZM9.77191 2.22901L7.33241 9.02163L5.85425 6.07514C5.79611 5.95897 5.69424 5.8658 5.56725 5.81261L2.34491 4.46049L9.77191 2.22901Z" fill="#2E3831"/>
</svg>
